<svg width="20" height="20" viewBox="0 0 20 20" fill="none" xmlns="http://www.w3.org/2000/svg">
<g clip-path="url(#clip0_3479_1549)">
<g clip-path="url(#clip1_3479_1549)">
<mask id="mask0_3479_1549" style="mask-type:luminance" maskUnits="userSpaceOnUse" x="0" y="0" width="20" height="20">
<path d="M20 0H0V20H20V0Z" fill="white"/>
</mask>
<g mask="url(#mask0_3479_1549)">
<path d="M20 10C20 11.9778 19.4135 13.9112 18.3147 15.5557C17.2159 17.2002 15.6541 18.4819 13.8268 19.2388C11.9995 19.9956 9.98891 20.1937 8.0491 19.8078C6.10929 19.422 4.32746 18.4696 2.92894 17.0711C1.53041 15.6725 0.578004 13.8907 0.192152 11.9509C-0.193701 10.0111 0.00433298 8.00043 0.761209 6.17316C1.51808 4.34591 2.79981 2.78412 4.4443 1.6853C6.08879 0.58649 8.02219 0 10 0C12.6522 0 15.1957 1.05357 17.0711 2.92894C18.9465 4.8043 20 7.34784 20 10Z" fill="#B60C00"/>
</g>
</g>
<path d="M4.552 13.128C3.288 13.128 2.552 12.472 2.472 11.504L3.36 11.448C3.44 12.04 3.888 12.336 4.552 12.336C5.296 12.336 5.76 11.896 5.76 11.152C5.76 10.424 5.304 9.952 4.544 9.952C4.032 9.952 3.616 10.184 3.448 10.552H2.552L2.936 7.32H6.264V8.112H3.704L3.504 9.688C3.792 9.384 4.24 9.216 4.744 9.216C5.888 9.216 6.656 10.032 6.656 11.152C6.656 12.328 5.8 13.128 4.552 13.128ZM9.65675 13.128C8.24075 13.128 7.35275 11.992 7.35275 10.168C7.35275 8.344 8.24075 7.192 9.65675 7.192C11.0807 7.192 11.9688 8.336 11.9688 10.168C11.9688 11.984 11.0807 13.128 9.65675 13.128ZM9.65675 12.336C10.5688 12.336 11.0728 11.568 11.0728 10.168C11.0728 8.76 10.5688 7.984 9.65675 7.984C8.75275 7.984 8.24875 8.76 8.24875 10.168C8.24875 11.568 8.75275 12.336 9.65675 12.336ZM15.1177 13.128C13.7017 13.128 12.8137 11.992 12.8137 10.168C12.8137 8.344 13.7017 7.192 15.1177 7.192C16.5417 7.192 17.4297 8.336 17.4297 10.168C17.4297 11.984 16.5417 13.128 15.1177 13.128ZM15.1177 12.336C16.0297 12.336 16.5337 11.568 16.5337 10.168C16.5337 8.76 16.0297 7.984 15.1177 7.984C14.2137 7.984 13.7097 8.76 13.7097 10.168C13.7097 11.568 14.2137 12.336 15.1177 12.336Z" fill="#EEEEEE"/>
</g>
<defs>
<clipPath id="clip0_3479_1549">
<rect width="20" height="20" fill="white"/>
</clipPath>
<clipPath id="clip1_3479_1549">
<rect width="20" height="20" fill="white"/>
</clipPath>
</defs>
</svg>
